<svg version="1.1" id="Layer_1"
	xmlns="http://www.w3.org/2000/svg"
	xmlns:xlink="http://www.w3.org/1999/xlink" x="0px" y="0px" width="100%" viewBox="0 0 1024 752" enable-background="new 0 0 1024 752" xml:space="preserve">
	<path fill="#000000" opacity="1.000000" stroke="none" d="
M340.169067,552.866455 
	C342.792755,554.190979 345.843994,554.059570 347.192047,557.002747 
	C346.504730,559.676697 344.322601,560.054993 342.151703,560.042480 
	C333.413666,559.992126 324.563202,558.774414 316.791962,555.304993 
	C310.313599,552.412781 305.463074,546.347412 303.559448,538.827698 
	C301.610596,531.129089 299.737610,523.512695 300.129028,515.363953 
	C300.332062,511.137360 301.749725,507.227997 301.868622,503.068146 
	C302.450592,482.705719 306.603149,462.831696 309.687531,442.780701 
	C312.399139,425.152771 315.731964,407.696930 319.864929,390.390930 
	C321.630676,382.997162 324.611420,375.894318 327.026398,368.654724 
	C331.487762,355.280457 338.554230,343.052094 343.999847,330.106537 
	C346.785461,323.484375 352.274292,318.555359 355.895844,312.356506 
	C361.433838,302.877411 369.561798,295.280151 376.122925,286.476746 
	C385.909912,273.344971 398.658173,263.043274 412.227295,253.938538 
	C419.938385,248.764450 426.813629,242.513458 435.386047,238.390579 
	C450.609131,231.069061 464.732544,235.208832 472.321350,250.825211 
	C477.230164,260.926636 478.324463,271.832092 479.997650,282.642151 
	C482.592926,299.409607 479.026550,316.026306 478.194305,332.674530 
	C477.361755,349.329132 474.808716,365.968872 471.947693,382.430511 
	C469.197937,398.251953 465.294739,413.860626 460.377838,429.230133 
	C455.668671,443.950287 450.726593,458.563690 445.238373,473.005829 
	C443.658844,477.162323 444.260101,480.992218 447.625702,484.367523 
	C452.327576,489.082916 453.755524,495.715332 456.886200,501.364410 
	C464.517120,515.133728 474.368866,527.201782 484.302582,539.249634 
	C485.939148,541.234497 488.335236,542.151489 490.612091,543.181335 
	C492.567688,544.065918 494.300842,543.670715 495.389221,541.835022 
	C499.899994,534.227295 502.515991,526.304443 500.244690,517.246399 
	C498.223938,509.187622 498.488129,500.796539 496.852448,492.591705 
	C494.481323,480.697571 491.646027,468.910095 489.233368,457.030151 
	C488.568207,453.754791 489.186890,450.996552 491.571594,448.849792 
	C493.716156,446.919189 496.243835,447.685608 498.640106,448.641327 
	C500.729614,449.474670 501.746124,451.129181 501.975555,453.246338 
	C503.076752,463.410004 506.243835,473.113342 509.710419,482.567596 
	C514.698364,496.170898 523.434937,507.560059 534.570923,516.790955 
	C541.347412,522.408264 546.173157,521.934998 552.978882,516.487976 
	C555.183838,514.723267 557.205505,512.729675 559.408569,510.962463 
	C568.103821,503.987457 569.108826,494.670227 566.917542,484.748260 
	C565.933044,480.290131 566.412476,475.798523 565.462646,471.390900 
	C564.683899,467.777161 563.085205,464.941132 559.885315,462.928314 
	C556.465271,460.777100 554.325134,457.199005 551.443848,454.578064 
	C545.529907,449.198425 542.294189,442.163086 539.518860,435.305969 
	C535.776611,426.059662 531.020142,416.850098 531.774536,406.186615 
	C532.239075,399.620087 530.313721,393.001434 532.700256,386.409973 
	C535.713013,378.088959 538.526428,369.807007 546.091248,364.224426 
	C553.099243,359.052704 557.022644,358.975800 563.952637,364.355743 
	C564.843018,365.046936 565.421692,366.218140 567.070374,366.135742 
	C567.298889,365.678772 567.858459,365.097992 567.814514,364.567139 
	C567.094727,355.878082 569.262329,347.381927 569.841736,338.790436 
	C570.722717,325.727509 571.982300,312.641296 573.173035,299.575012 
	C575.714355,271.688843 580.289856,243.903152 578.166199,215.753510 
	C577.417175,205.825531 575.392212,195.996231 575.807678,185.974228 
	C576.016602,180.934509 579.018005,178.347900 583.438965,179.219910 
	C586.937683,179.909973 587.755981,182.579788 588.147827,185.480637 
	C589.461365,195.204880 591.021057,204.911331 591.880737,214.677933 
	C593.348694,231.355713 597.426819,247.208054 604.117432,262.599915 
	C608.198486,271.988312 610.599243,282.096527 613.971619,291.806091 
	C618.877136,305.930023 624.775024,319.676239 630.194641,333.596954 
	C638.326477,354.484192 648.652039,374.312317 658.069214,394.564575 
	C662.409729,403.899048 665.610107,413.626007 669.874756,422.941589 
	C670.789062,424.938721 670.954895,427.580048 674.290039,428.184387 
	C675.282288,417.475952 678.393066,407.060394 676.361694,396.298096 
	C674.934570,388.736755 675.734863,381.397064 678.052185,374.185944 
	C679.214600,370.568481 682.033325,368.800018 685.775208,369.220825 
	C689.283264,369.615356 689.956421,372.337708 690.296631,375.416107 
	C691.100037,382.686554 691.169617,390.239990 693.339783,397.109070 
	C696.411560,406.831909 701.647339,415.646545 711.401917,420.533569 
	C715.029358,422.350891 718.750977,419.878815 721.787537,414.604645 
	C726.867615,405.781036 729.605103,395.957092 734.032104,386.866638 
	C735.855713,383.122009 737.632385,379.351746 739.565735,375.664093 
	C742.501404,370.064728 748.878662,368.041290 752.646057,374.907013 
	C755.895569,380.829102 761.069824,384.751434 767.496948,387.616913 
	C774.797180,390.871613 781.625977,394.894958 789.978149,394.929962 
	C792.630310,394.941101 794.041992,397.086823 793.938477,399.799133 
	C793.810852,403.142853 791.971252,405.106537 788.633484,405.262512 
	C781.385925,405.601288 774.550415,404.112091 767.670532,401.589142 
	C759.527832,398.603058 752.922913,393.477539 746.369141,388.074768 
	C743.212402,390.261475 742.684998,393.396027 741.830627,396.098358 
	C739.378967,403.852539 735.536255,411.041412 732.815674,418.620392 
	C730.145874,426.057800 724.811768,430.014465 718.229431,432.231018 
	C708.870239,435.382629 702.190918,429.617035 695.826599,423.763214 
	C693.703613,421.810547 693.101807,418.311584 689.433044,417.502563 
	C687.111816,421.624390 685.033752,425.866943 684.550476,430.454407 
	C683.762329,437.936768 681.281677,445.047791 680.322632,452.468475 
	C679.879150,455.900421 678.441406,458.714264 674.582214,458.904846 
	C670.764832,459.093414 668.912598,456.398010 668.019043,453.152161 
	C664.748596,441.272583 659.798218,430.011566 655.579041,418.478241 
	C648.137207,398.136047 637.144470,379.455353 628.724976,359.591492 
	C624.123108,348.734497 620.082153,337.641083 615.605530,326.729279 
	C610.712524,314.802643 606.523193,302.579437 600.757324,291.020660 
	C599.690613,288.882263 599.099304,286.655670 598.731506,284.362549 
	C597.408142,276.110229 592.319519,269.044769 591.315735,260.688354 
	C591.224426,259.928467 590.557190,259.205963 589.223145,259.049164 
	C585.949585,265.043701 587.541809,271.911285 586.256409,278.282043 
	C584.559814,286.690796 584.731750,295.299438 582.989319,303.817902 
	C581.222961,312.453613 582.703613,321.746704 581.182556,330.585907 
	C579.635437,339.576599 578.902588,348.749542 578.590027,357.682007 
	C577.973755,375.297882 576.005188,393.123260 582.350891,410.567444 
	C584.342224,416.041321 584.931641,422.245880 586.792175,428.118195 
	C589.093628,435.382141 589.427002,443.354156 587.547852,451.271759 
	C585.316772,460.671936 587.648132,463.103546 596.895630,464.940002 
	C606.794800,466.905884 616.964966,467.905304 626.413452,471.749329 
	C635.205322,475.326233 642.919678,479.957825 643.113403,491.119965 
	C643.173584,494.585541 645.168518,495.072296 648.274048,494.005951 
	C655.421326,491.551666 661.815613,487.598022 668.077820,483.624084 
	C676.288147,478.413788 685.729675,476.137909 694.143250,471.459930 
	C704.435974,465.737183 715.009705,460.509949 725.551270,455.247284 
	C737.396240,449.333862 749.226807,443.368195 761.283020,437.909851 
	C769.013916,434.409790 776.054443,429.662476 783.976562,426.496063 
	C803.069519,418.864716 819.835144,406.558014 839.175964,399.194183 
	C851.048645,394.673828 862.072815,387.923859 873.471436,382.162201 
	C874.216248,381.785767 874.896912,381.293091 874.793640,379.950500 
	C872.953247,378.764801 870.944946,378.762939 868.902954,379.839905 
	C860.524597,384.258698 852.244568,389.045441 842.886780,391.008301 
	C835.097351,392.642181 828.198608,397.030457 819.944946,397.401489 
	C814.523071,397.645172 809.896362,401.638489 804.407837,402.606293 
	C802.024841,403.026489 799.385254,403.937012 798.297913,401.244690 
	C797.300842,398.776001 799.906189,397.456268 801.639221,396.317657 
	C805.758240,393.611450 810.847534,393.594330 815.270142,391.754028 
	C830.255554,385.518372 846.085327,381.715240 860.725403,374.214294 
	C870.240479,369.339233 881.164856,364.606842 892.594604,370.619598 
	C897.917053,373.419586 898.518555,375.826477 894.157166,380.050568 
	C887.415833,386.579773 879.749573,391.823456 871.192627,395.788391 
	C865.012512,398.652008 859.023560,401.907379 853.004211,405.109039 
	C842.323364,410.790192 831.070862,415.330994 820.338623,420.985291 
	C804.011597,429.587311 787.619019,438.129761 770.844299,445.801025 
	C748.453125,456.040802 727.259460,468.682037 704.761536,478.586151 
	C688.127991,485.908600 672.942322,495.936066 656.244995,503.032379 
	C650.035339,505.671448 643.343567,507.407898 638.795959,513.123230 
	C637.144348,515.199036 635.194519,517.093994 633.943054,519.426392 
	C626.998962,532.368530 614.692261,538.303711 602.041199,543.541687 
	C598.309570,545.086731 594.194214,545.126953 590.839172,540.933960 
	C587.776550,537.106506 582.979248,537.424011 578.871460,539.456055 
	C564.402954,546.613281 550.135071,554.178040 535.633911,561.266785 
	C522.305664,567.782227 510.317169,576.512939 497.522125,583.911743 
	C488.440582,589.163208 480.682922,596.655945 472.059326,602.759705 
	C461.575470,610.180115 449.725952,615.211182 438.437927,621.231873 
	C417.181671,632.569336 396.181793,644.387573 374.924469,655.722961 
	C355.882843,665.876831 337.191040,676.678894 317.753906,686.107117 
	C299.374115,695.022400 282.124390,705.980408 264.531311,716.318176 
	C257.241272,720.601929 249.584442,724.304260 241.906021,727.864685 
	C238.525482,729.432190 234.930939,728.934265 232.774658,725.212830 
	C230.624741,721.502502 232.582443,718.626160 235.383041,716.612671 
	C241.598907,712.143616 248.744675,709.221619 255.466309,705.641479 
	C273.191315,696.200745 290.727386,686.485352 307.859436,675.996582 
	C319.727234,668.730835 331.663147,661.578125 344.105194,655.244690 
	C357.518707,648.416687 370.857605,641.285889 383.516144,633.174561 
	C396.256805,625.010620 409.447968,617.662170 422.493805,610.072937 
	C435.105713,602.736023 448.273407,596.334167 461.335175,589.797729 
	C471.288879,584.816711 480.272675,578.246887 490.357391,573.387329 
	C511.151703,563.367310 530.520752,550.609009 551.313599,540.516907 
	C558.799377,536.883606 566.297546,533.268860 573.687866,529.448120 
	C578.656738,526.879211 578.696045,520.983398 573.994202,517.932983 
	C572.695679,517.090515 571.466248,517.062195 570.278931,517.896423 
	C566.741882,520.381592 562.521240,522.196350 559.962219,525.707214 
	C552.115051,536.473389 533.944214,533.576965 526.778076,526.548523 
	C522.591064,522.441895 519.140198,517.758179 515.368042,513.324402 
	C514.351257,512.129272 513.459167,510.501953 510.806580,510.905334 
	C509.808685,516.189453 509.992096,521.721436 510.865753,526.902893 
	C512.873779,538.812500 506.167969,546.596924 498.810394,553.860596 
	C494.862427,557.758179 485.169830,555.777527 480.950470,551.927551 
	C472.304230,544.038147 465.579071,534.474915 457.846497,525.801392 
	C453.732971,521.187195 450.629120,515.382874 448.202393,509.637299 
	C445.819824,503.996277 440.874756,499.798187 439.888458,493.380341 
	C439.529175,491.042267 437.153046,490.511383 435.389893,492.787781 
	C434.487152,493.953278 433.800751,495.313568 433.170044,496.657837 
	C430.486572,502.377197 427.904175,508.090118 423.861084,513.104736 
	C420.339600,517.472412 419.350037,522.598572 421.412109,528.138855 
	C424.509369,536.460388 425.232819,545.297424 426.267975,553.990662 
	C427.584900,565.050171 430.950684,575.760010 431.525177,586.919373 
	C431.576416,587.914612 431.860992,588.921021 431.767395,589.896301 
	C431.456970,593.131775 430.111664,595.923218 426.668884,596.450378 
	C423.274017,596.970154 421.831085,594.009155 421.345520,591.520569 
	C419.311615,581.095764 416.060791,570.958374 414.653381,560.368958 
	C413.107697,548.739075 412.296570,536.844482 406.439026,526.198120 
	C405.911713,525.239624 405.560577,523.822388 405.852203,522.831421 
	C408.630920,513.389771 404.475861,504.959106 401.415466,496.705048 
	C397.691284,486.660736 395.455444,476.279755 392.673706,466.030365 
	C389.997070,456.168182 386.435822,446.759033 381.354340,437.912018 
	C380.857208,437.046417 380.238068,436.224762 379.895264,435.301147 
	C378.385529,431.233582 380.491089,426.018463 384.490997,424.364685 
	C389.316071,422.369690 391.423218,425.964264 392.719788,429.351410 
	C397.604828,442.112946 403.992828,454.233887 406.578674,467.985168 
	C407.984619,475.462036 410.167694,483.003326 412.273407,490.442169 
	C412.741699,492.096405 413.362000,493.709229 415.153442,494.245026 
	C417.365448,494.906647 417.783051,492.741455 418.883698,491.632385 
	C430.214081,480.214752 434.853516,465.155304 441.734039,451.183136 
	C448.590454,437.259888 450.428406,422.007812 456.031433,407.849060 
	C457.650146,403.758606 457.976654,399.116364 457.892426,394.574341 
	C457.862183,392.943237 457.944580,391.101868 458.653015,389.698425 
	C463.885986,379.331879 463.763733,367.875824 465.521118,356.814209 
	C467.579620,343.857300 467.958557,330.718567 469.354462,317.682861 
	C470.764191,304.517487 470.677673,291.141235 467.369232,278.029572 
	C465.907257,272.235657 465.067261,266.282715 463.996582,260.392578 
	C462.229736,250.672394 451.193146,244.467545 442.121399,247.883987 
	C432.395508,251.546799 424.959259,258.659698 416.863525,264.654510 
	C406.862976,272.059814 397.671295,280.551086 388.033905,288.455872 
	C383.484772,292.187134 380.286469,297.102112 376.746643,301.598541 
	C368.753448,311.751801 362.151520,322.877594 355.391907,333.927765 
	C350.058502,342.646454 346.319183,351.955994 341.964996,360.947144 
	C336.669189,371.882721 332.655609,383.490448 329.593658,395.485657 
	C326.469269,407.725311 324.575836,420.197937 321.368866,432.404968 
	C319.737671,438.613739 320.578369,445.285248 319.515198,451.731964 
	C317.407654,464.510681 315.581970,477.341583 314.654602,490.286224 
	C313.553955,505.649292 312.872162,520.978699 315.303040,536.296265 
	C315.643555,538.441895 316.498016,540.019287 317.927460,541.482971 
	C321.894226,545.544861 326.741882,548.006958 332.219788,549.216492 
	C335.037750,549.838806 337.693085,550.664917 340.169067,552.866455 
M630.863525,486.825348 
	C630.104553,486.185547 629.441406,485.337616 628.572205,484.937256 
	C616.519470,479.386139 603.751892,476.876160 590.573792,476.263489 
	C587.615112,476.125946 586.553223,478.241821 586.258789,480.773193 
	C585.356689,488.530487 584.009949,496.156342 580.554749,503.275330 
	C579.863403,504.699707 580.253357,506.224640 581.287231,507.485107 
	C583.864929,510.627655 585.330017,514.327881 586.619385,518.113037 
	C587.722778,521.352295 590.112610,522.332275 592.882385,520.779480 
	C601.884644,515.732483 611.614746,512.256836 620.776367,507.605194 
	C632.515015,501.645081 634.454712,497.460052 630.863525,486.825348 
M560.341736,447.763031 
	C562.120483,449.556366 563.250366,449.041779 563.707642,446.728973 
	C564.189026,444.294739 564.812195,441.845795 564.907288,439.385284 
	C565.324280,428.597107 565.374451,417.792084 565.936035,407.012878 
	C566.520691,395.789978 566.881042,384.836182 558.576599,375.639435 
	C555.453003,372.180298 552.865662,371.806763 550.198669,375.666779 
	C545.404846,382.604828 541.498718,389.808258 543.345398,398.755066 
	C543.677185,400.362701 543.645935,402.068695 543.608704,403.725403 
	C543.233398,420.421509 549.916016,434.466339 560.341736,447.763031 
M610.375305,528.096130 
	C610.997375,527.211060 612.232056,526.477356 610.818298,524.778625 
	C605.647705,525.964355 600.561279,527.411255 596.664062,533.082642 
	C602.456970,533.322021 606.277405,531.256775 610.375305,528.096130 
z"/>
	<path fill="#000000" opacity="1.000000" stroke="none" d="
M743.961731,284.144897 
	C744.829895,280.070007 742.257996,279.922150 739.845947,280.237213 
	C735.095093,280.857758 730.339111,281.351746 726.112915,284.207764 
	C723.147095,286.211945 719.950439,288.188995 715.932007,287.436523 
	C712.565491,286.806091 711.125854,285.287415 712.754395,281.902496 
	C714.289001,278.712891 715.973511,275.452667 719.314331,273.963440 
	C727.986328,270.097839 736.763062,266.446503 746.657776,268.414886 
	C754.625854,270.000031 759.086304,279.225403 754.926270,286.232025 
	C747.850769,298.149078 738.676880,308.030670 726.093445,314.353943 
	C725.352966,314.726074 724.598511,315.103210 723.809082,315.338837 
	C721.605652,315.996368 719.050049,317.277344 717.509766,314.625580 
	C715.886841,311.831635 718.656616,310.767090 720.216125,309.089905 
	C727.963440,300.758148 738.544067,295.140900 743.961731,284.144897 
z"/>
</svg>